<svg width="21" height="25" viewBox="0 0 21 25" fill="none" xmlns="http://www.w3.org/2000/svg">
<path d="M16.3125 4.26562H4.6875C4.55904 4.26562 4.43583 4.31666 4.34499 4.4075C4.25416 4.49833 4.20312 4.62154 4.20312 4.75V10.5625C4.20312 10.691 4.25416 10.8142 4.34499 10.905C4.43583 10.9958 4.55904 11.0469 4.6875 11.0469H16.3125C16.441 11.0469 16.5642 10.9958 16.655 10.905C16.7458 10.8142 16.7969 10.691 16.7969 10.5625V4.75C16.7969 4.62154 16.7458 4.49833 16.655 4.4075C16.5642 4.31666 16.441 4.26562 16.3125 4.26562ZM15.8281 10.0781H5.17188V5.23438H15.8281V10.0781ZM19.2188 0.390625H1.78125C1.39586 0.390625 1.02625 0.543722 0.753735 0.816236C0.481221 1.08875 0.328125 1.45836 0.328125 1.84375V23.1562C0.328125 23.5416 0.481221 23.9112 0.753735 24.1838C1.02625 24.4563 1.39586 24.6094 1.78125 24.6094H19.2188C19.6041 24.6094 19.9737 24.4563 20.2463 24.1838C20.5188 23.9112 20.6719 23.5416 20.6719 23.1562V1.84375C20.6719 1.45836 20.5188 1.08875 20.2463 0.816236C19.9737 0.543722 19.6041 0.390625 19.2188 0.390625ZM19.7031 23.1562C19.7031 23.2847 19.6521 23.4079 19.5613 23.4988C19.4704 23.5896 19.3472 23.6406 19.2188 23.6406H1.78125C1.65279 23.6406 1.52958 23.5896 1.43875 23.4988C1.34791 23.4079 1.29688 23.2847 1.29688 23.1562V1.84375C1.29688 1.71529 1.34791 1.59208 1.43875 1.50125C1.52958 1.41041 1.65279 1.35938 1.78125 1.35938H19.2188C19.3472 1.35938 19.4704 1.41041 19.5613 1.50125C19.6521 1.59208 19.7031 1.71529 19.7031 1.84375V23.1562ZM6.625 14.9219C6.625 15.1135 6.56818 15.3008 6.46174 15.4601C6.35529 15.6194 6.20399 15.7436 6.02697 15.8169C5.84996 15.8902 5.65518 15.9094 5.46726 15.872C5.27934 15.8346 5.10672 15.7424 4.97124 15.6069C4.83576 15.4714 4.74349 15.2988 4.70611 15.1109C4.66873 14.923 4.68792 14.7282 4.76124 14.5512C4.83456 14.3741 4.95873 14.2228 5.11804 14.1164C5.27735 14.0099 5.46465 13.9531 5.65625 13.9531C5.91318 13.9531 6.15958 14.0552 6.34126 14.2369C6.52294 14.4185 6.625 14.6649 6.625 14.9219ZM11.4688 14.9219C11.4688 15.1135 11.4119 15.3008 11.3055 15.4601C11.199 15.6194 11.0477 15.7436 10.8707 15.8169C10.6937 15.8902 10.4989 15.9094 10.311 15.872C10.1231 15.8346 9.95047 15.7424 9.81499 15.6069C9.67951 15.4714 9.58724 15.2988 9.54986 15.1109C9.51248 14.923 9.53167 14.7282 9.60499 14.5512C9.67831 14.3741 9.80248 14.2228 9.96179 14.1164C10.1211 14.0099 10.3084 13.9531 10.5 13.9531C10.7569 13.9531 11.0033 14.0552 11.185 14.2369C11.3667 14.4185 11.4688 14.6649 11.4688 14.9219ZM16.3125 14.9219C16.3125 15.1135 16.2557 15.3008 16.1492 15.4601C16.0428 15.6194 15.8915 15.7436 15.7145 15.8169C15.5375 15.8902 15.3427 15.9094 15.1548 15.872C14.9668 15.8346 14.7942 15.7424 14.6587 15.6069C14.5233 15.4714 14.431 15.2988 14.3936 15.1109C14.3562 14.923 14.3754 14.7282 14.4487 14.5512C14.5221 14.3741 14.6462 14.2228 14.8055 14.1164C14.9649 14.0099 15.1521 13.9531 15.3438 13.9531C15.6007 13.9531 15.8471 14.0552 16.0288 14.2369C16.2104 14.4185 16.3125 14.6649 16.3125 14.9219ZM6.625 19.7656C6.625 19.9572 6.56818 20.1445 6.46174 20.3038C6.35529 20.4631 6.20399 20.5873 6.02697 20.6606C5.84996 20.734 5.65518 20.7531 5.46726 20.7158C5.27934 20.6784 5.10672 20.5861 4.97124 20.4506C4.83576 20.3152 4.74349 20.1425 4.70611 19.9546C4.66873 19.7667 4.68792 19.5719 4.76124 19.3949C4.83456 19.2179 4.95873 19.0666 5.11804 18.9601C5.27735 18.8537 5.46465 18.7969 5.65625 18.7969C5.91318 18.7969 6.15958 18.8989 6.34126 19.0806C6.52294 19.2623 6.625 19.5087 6.625 19.7656ZM11.4688 19.7656C11.4688 19.9572 11.4119 20.1445 11.3055 20.3038C11.199 20.4631 11.0477 20.5873 10.8707 20.6606C10.6937 20.734 10.4989 20.7531 10.311 20.7158C10.1231 20.6784 9.95047 20.5861 9.81499 20.4506C9.67951 20.3152 9.58724 20.1425 9.54986 19.9546C9.51248 19.7667 9.53167 19.5719 9.60499 19.3949C9.67831 19.2179 9.80248 19.0666 9.96179 18.9601C10.1211 18.8537 10.3084 18.7969 10.5 18.7969C10.7569 18.7969 11.0033 18.8989 11.185 19.0806C11.3667 19.2623 11.4688 19.5087 11.4688 19.7656ZM16.3125 19.7656C16.3125 19.9572 16.2557 20.1445 16.1492 20.3038C16.0428 20.4631 15.8915 20.5873 15.7145 20.6606C15.5375 20.734 15.3427 20.7531 15.1548 20.7158C14.9668 20.6784 14.7942 20.5861 14.6587 20.4506C14.5233 20.3152 14.431 20.1425 14.3936 19.9546C14.3562 19.7667 14.3754 19.5719 14.4487 19.3949C14.5221 19.2179 14.6462 19.0666 14.8055 18.9601C14.9649 18.8537 15.1521 18.7969 15.3438 18.7969C15.6007 18.7969 15.8471 18.8989 16.0288 19.0806C16.2104 19.2623 16.3125 19.5087 16.3125 19.7656Z" fill="#1B2740"/>
</svg>
