<svg width="31" height="31" viewBox="0 0 31 31" fill="none" xmlns="http://www.w3.org/2000/svg">
<path d="M26.1562 8.23438H6.78125C6.39586 8.23438 6.02625 8.08128 5.75374 7.80876C5.48122 7.53625 5.32812 7.16664 5.32812 6.78125C5.32812 6.39586 5.48122 6.02625 5.75374 5.75374C6.02625 5.48122 6.39586 5.32812 6.78125 5.32812H23.25C23.3785 5.32812 23.5017 5.27709 23.5925 5.18625C23.6833 5.09542 23.7344 4.97221 23.7344 4.84375C23.7344 4.71529 23.6833 4.59208 23.5925 4.50125C23.5017 4.41041 23.3785 4.35938 23.25 4.35938H6.78125C6.13893 4.35938 5.52292 4.61454 5.06873 5.06873C4.61454 5.52292 4.35938 6.13893 4.35938 6.78125V22.2812C4.35938 22.9236 4.61454 23.5396 5.06873 23.9938C5.52292 24.448 6.13893 24.7031 6.78125 24.7031H26.1562C26.5416 24.7031 26.9112 24.55 27.1838 24.2775C27.4563 24.005 27.6094 23.6354 27.6094 23.25V9.6875C27.6094 9.30211 27.4563 8.9325 27.1838 8.65999C26.9112 8.38747 26.5416 8.23438 26.1562 8.23438ZM26.6406 23.25C26.6406 23.3785 26.5896 23.5017 26.4988 23.5925C26.4079 23.6833 26.2847 23.7344 26.1562 23.7344H6.78125C6.39586 23.7344 6.02625 23.5813 5.75374 23.3088C5.48122 23.0362 5.32812 22.6666 5.32812 22.2812V8.71875C5.74676 9.03427 6.25703 9.20436 6.78125 9.20312H26.1562C26.2847 9.20312 26.4079 9.25416 26.4988 9.34499C26.5896 9.43583 26.6406 9.55904 26.6406 9.6875V23.25ZM22.7656 15.9844C22.7656 16.176 22.7088 16.3633 22.6024 16.5226C22.4959 16.6819 22.3446 16.8061 22.1676 16.8794C21.9906 16.9527 21.7958 16.9719 21.6079 16.9345C21.42 16.8971 21.2473 16.8049 21.1119 16.6694C20.9764 16.5339 20.8841 16.3613 20.8467 16.1734C20.8094 15.9855 20.8285 15.7907 20.9019 15.6137C20.9752 15.4366 21.0994 15.2853 21.2587 15.1789C21.418 15.0724 21.6053 15.0156 21.7969 15.0156C22.0538 15.0156 22.3002 15.1177 22.4819 15.2994C22.6636 15.481 22.7656 15.7274 22.7656 15.9844Z" fill="#1B2740"/>
</svg>
