<svg width="25" height="24" viewBox="0 0 25 24" fill="none" xmlns="http://www.w3.org/2000/svg">
<path d="M24.544 22.9141C22.5436 19.4556 19.337 17.0943 15.6218 16.243C17.3872 15.5197 18.8467 14.2059 19.7509 12.526C20.655 10.8461 20.9479 8.90433 20.5793 7.03248C20.2107 5.16063 19.2036 3.47485 17.73 2.26313C16.2564 1.05142 14.4078 0.388977 12.5 0.388977C10.5923 0.388977 8.74365 1.05142 7.27008 2.26313C5.7965 3.47485 4.78939 5.16063 4.42081 7.03248C4.05222 8.90433 4.34504 10.8461 5.24923 12.526C6.15342 14.2059 7.61287 15.5197 9.37825 16.243C5.66793 17.0907 2.45653 19.4556 0.456058 22.9141C0.398149 23.0248 0.385252 23.1536 0.42006 23.2736C0.454869 23.3935 0.534691 23.4954 0.642852 23.5579C0.751013 23.6205 0.879149 23.6388 1.00049 23.6091C1.12184 23.5793 1.227 23.5039 1.29403 23.3984C3.6602 19.3043 7.85246 16.8594 12.5 16.8594C17.1476 16.8594 21.3399 19.3043 23.7061 23.3984C23.7485 23.472 23.8096 23.5331 23.8831 23.5756C23.9567 23.6181 24.0401 23.6405 24.125 23.6406C24.2102 23.6409 24.2938 23.6183 24.3672 23.5752C24.4783 23.5109 24.5592 23.4052 24.5924 23.2812C24.6255 23.1573 24.6081 23.0252 24.544 22.9141ZM5.23442 8.62501C5.23442 7.18801 5.66054 5.78327 6.4589 4.58845C7.25725 3.39362 8.39199 2.46237 9.71961 1.91245C11.0472 1.36253 12.5081 1.21865 13.9175 1.49899C15.3269 1.77934 16.6215 2.47132 17.6376 3.48744C18.6537 4.50355 19.3457 5.79816 19.6261 7.20756C19.9064 8.61695 19.7625 10.0778 19.2126 11.4054C18.6627 12.7331 17.7314 13.8678 16.5366 14.6662C15.3418 15.4645 13.937 15.8906 12.5 15.8906C10.5738 15.8884 8.72703 15.1222 7.36495 13.7601C6.00286 12.398 5.23666 10.5513 5.23442 8.62501Z" fill="#1B2740"/>
</svg>
