<svg width="33" height="33" viewBox="0 0 33 33" fill="none" xmlns="http://www.w3.org/2000/svg">
<path d="M16.5 0.5C13.3355 0.5 10.2421 1.43838 7.61088 3.19649C4.9797 4.95459 2.92894 7.45345 1.71793 10.3771C0.506932 13.3007 0.190079 16.5177 0.807443 19.6214C1.42481 22.7251 2.94866 25.5761 5.1863 27.8137C7.42394 30.0513 10.2749 31.5752 13.3786 32.1926C16.4823 32.8099 19.6993 32.4931 22.6229 31.2821C25.5466 30.0711 28.0454 28.0203 29.8035 25.3891C31.5616 22.7579 32.5 19.6645 32.5 16.5C32.4953 12.258 30.8081 8.19101 27.8086 5.19144C24.809 2.19186 20.742 0.504659 16.5 0.5ZM16.5 31.22C13.5887 31.22 10.7427 30.3567 8.32201 28.7392C5.90132 27.1218 4.01462 24.8228 2.9005 22.1331C1.78638 19.4434 1.49487 16.4837 2.06285 13.6283C2.63082 10.7729 4.03277 8.15002 6.09139 6.09139C8.15002 4.03276 10.7729 2.63081 13.6283 2.06284C16.4837 1.49487 19.4434 1.78637 22.1331 2.90049C24.8228 4.01461 27.1218 5.90131 28.7392 8.322C30.3567 10.7427 31.22 13.5887 31.22 16.5C31.2158 20.4027 29.6636 24.1443 26.9039 26.9039C24.1443 29.6635 20.4027 31.2158 16.5 31.22ZM23.54 16.5C23.54 16.6697 23.4726 16.8325 23.3526 16.9525C23.2325 17.0726 23.0697 17.14 22.9 17.14H17.14V22.9C17.14 23.0697 17.0726 23.2325 16.9526 23.3525C16.8325 23.4726 16.6697 23.54 16.5 23.54C16.3303 23.54 16.1675 23.4726 16.0475 23.3525C15.9274 23.2325 15.86 23.0697 15.86 22.9V17.14H10.1C9.93027 17.14 9.76748 17.0726 9.64746 16.9525C9.52743 16.8325 9.46001 16.6697 9.46001 16.5C9.46001 16.3303 9.52743 16.1675 9.64746 16.0474C9.76748 15.9274 9.93027 15.86 10.1 15.86H15.86V10.1C15.86 9.93026 15.9274 9.76747 16.0475 9.64745C16.1675 9.52743 16.3303 9.46 16.5 9.46C16.6697 9.46 16.8325 9.52743 16.9526 9.64745C17.0726 9.76747 17.14 9.93026 17.14 10.1V15.86H22.9C23.0697 15.86 23.2325 15.9274 23.3526 16.0474C23.4726 16.1675 23.54 16.3303 23.54 16.5Z" fill="#2D2F5F"/>
</svg>
