<svg width="18" height="20" viewBox="0 0 18 20" fill="none" xmlns="http://www.w3.org/2000/svg">
<path d="M17.8452 9.58405L9.37414 0.171796C9.27487 0.0616333 9.1403 -0.000244141 9 -0.000244141C8.8597 -0.000244141 8.72513 0.0616333 8.62586 0.171796L0.154837 9.58405C0.0808872 9.66632 0.0305379 9.77109 0.0101478 9.88513C-0.0102422 9.99918 0.000241659 10.1174 0.0402753 10.2248C0.0803089 10.3322 0.148097 10.4241 0.235077 10.4887C0.322057 10.5534 0.424328 10.5879 0.528974 10.588H4.23505V18.6277C4.23505 18.9917 4.3652 19.3408 4.59688 19.5982C4.82855 19.8557 5.14277 20.0003 5.47041 20.0003H12.5296C12.8572 20.0003 13.1714 19.8557 13.4031 19.5982C13.6348 19.3408 13.765 18.9917 13.765 18.6277V10.588H17.471C17.5757 10.5879 17.6779 10.5534 17.7649 10.4887C17.8519 10.4241 17.9197 10.3322 17.9597 10.2248C17.9998 10.1174 18.0102 9.99918 17.9899 9.88513C17.9695 9.77109 17.9191 9.66632 17.8452 9.58405ZM13.2355 9.41149C13.0951 9.41149 12.9604 9.47347 12.8611 9.58379C12.7619 9.69411 12.7061 9.84374 12.7061 9.99975V18.6277C12.7061 18.6797 12.6875 18.7295 12.6544 18.7663C12.6213 18.8031 12.5764 18.8237 12.5296 18.8237H5.47041C5.4236 18.8237 5.37871 18.8031 5.34562 18.7663C5.31252 18.7295 5.29393 18.6797 5.29393 18.6277V9.99975C5.29393 9.84374 5.23815 9.69411 5.13886 9.58379C5.03957 9.47347 4.9049 9.41149 4.76449 9.41149H1.80757L9 1.4199L16.1924 9.41149H13.2355Z" fill="#2D2F5F"/>
</svg>
