<svg width="18" height="20" viewBox="0 0 18 20" fill="none" xmlns="http://www.w3.org/2000/svg">
<path d="M0.154835 10.416L8.62586 19.828C8.72513 19.9381 8.8597 20 9 20C9.1403 20 9.27487 19.9381 9.37414 19.828L17.8452 10.416C17.9191 10.3337 17.9695 10.2289 17.9899 10.1149C18.0102 10.0008 17.9998 9.88264 17.9597 9.77522C17.9197 9.66779 17.8519 9.57596 17.7649 9.51131C17.6779 9.44667 17.5757 9.41211 17.471 9.41201H13.765L13.765 1.37259C13.765 1.00855 13.6348 0.659431 13.4031 0.402021C13.1714 0.144611 12.8572 0 12.5296 0H5.47041C5.14277 0 4.82855 0.144611 4.59688 0.402021C4.3652 0.659431 4.23505 1.00855 4.23505 1.37259V9.41201H0.528973C0.424328 9.41211 0.322056 9.44667 0.235077 9.51131C0.148096 9.57596 0.080307 9.66779 0.0402737 9.77522C0.000240326 9.88264 -0.0102425 10.0008 0.0101471 10.1149C0.0305386 10.2289 0.0808849 10.3337 0.154835 10.416ZM4.76449 10.5885C4.9049 10.5885 5.03957 10.5265 5.13886 10.4162C5.23815 10.3059 5.29393 10.1563 5.29393 10.0003V1.37259C5.29393 1.32058 5.31252 1.27071 5.34562 1.23393C5.37871 1.19716 5.4236 1.1765 5.47041 1.1765H12.5296C12.5764 1.1765 12.6213 1.19716 12.6544 1.23393C12.6875 1.27071 12.7061 1.32058 12.7061 1.37259L12.7061 10.0003C12.7061 10.1563 12.7619 10.3059 12.8611 10.4162C12.9604 10.5265 13.0951 10.5885 13.2355 10.5885H16.1924L9 18.5799L1.80757 10.5885H4.76449Z" fill="#2D2F5F"/>
</svg>
