<svg width="31" height="31" viewBox="0 0 31 31" fill="none" xmlns="http://www.w3.org/2000/svg">
<path d="M27.5 5.06522V18.6304C27.5 19.0456 27.3351 19.4437 27.0416 19.7372C26.748 20.0307 26.3499 20.1957 25.9348 20.1957H10.4991L12.7387 22.4352C12.8366 22.5331 12.8916 22.6659 12.8916 22.8043C12.8916 22.9428 12.8366 23.0756 12.7387 23.1735C12.6408 23.2714 12.508 23.3264 12.3696 23.3264C12.2311 23.3264 12.0983 23.2714 12.0004 23.1735L8.87 20.043C8.82149 19.9946 8.78301 19.937 8.75675 19.8737C8.73049 19.8104 8.71698 19.7425 8.71698 19.6739C8.71698 19.6053 8.73049 19.5375 8.75675 19.4741C8.78301 19.4108 8.82149 19.3532 8.87 19.3048L12.0004 16.1743C12.0983 16.0764 12.2311 16.0214 12.3696 16.0214C12.508 16.0214 12.6408 16.0764 12.7387 16.1743C12.8366 16.2722 12.8916 16.405 12.8916 16.5435C12.8916 16.6819 12.8366 16.8147 12.7387 16.9126L10.4991 19.1522H25.9348C26.0732 19.1522 26.2059 19.0972 26.3037 18.9994C26.4016 18.9015 26.4565 18.7688 26.4565 18.6304V5.06522C26.4565 4.92684 26.4016 4.79414 26.3037 4.69629C26.2059 4.59845 26.0732 4.54348 25.9348 4.54348H11.3261C11.1877 4.54348 11.055 4.59845 10.9572 4.69629C10.8593 4.79414 10.8043 4.92684 10.8043 5.06522V6.1087C10.8043 6.24707 10.7494 6.37978 10.6515 6.47762C10.5537 6.57547 10.421 6.63043 10.2826 6.63043C10.1442 6.63043 10.0115 6.57547 9.91368 6.47762C9.81584 6.37978 9.76087 6.24707 9.76087 6.1087V5.06522C9.76087 4.6501 9.92578 4.25198 10.2193 3.95844C10.5128 3.66491 10.911 3.5 11.3261 3.5H25.9348C26.3499 3.5 26.748 3.66491 27.0416 3.95844C27.3351 4.25198 27.5 4.6501 27.5 5.06522ZM20.7174 24.3696C20.579 24.3696 20.4463 24.4245 20.3485 24.5224C20.2506 24.6202 20.1957 24.7529 20.1957 24.8913V25.9348C20.1957 26.0732 20.1407 26.2059 20.0428 26.3037C19.945 26.4016 19.8123 26.4565 19.6739 26.4565H5.06522C4.92684 26.4565 4.79414 26.4016 4.69629 26.3037C4.59845 26.2059 4.54348 26.0732 4.54348 25.9348V12.3696C4.54348 12.2312 4.59845 12.0985 4.69629 12.0006C4.79414 11.9028 4.92684 11.8478 5.06522 11.8478H20.5009L18.2613 14.0874C18.1634 14.1853 18.1084 14.3181 18.1084 14.4565C18.1084 14.595 18.1634 14.7278 18.2613 14.8257C18.3592 14.9236 18.492 14.9786 18.6304 14.9786C18.7689 14.9786 18.9017 14.9236 18.9996 14.8257L22.13 11.6952C22.1785 11.6468 22.217 11.5892 22.2432 11.5259C22.2695 11.4625 22.283 11.3947 22.283 11.3261C22.283 11.2575 22.2695 11.1896 22.2432 11.1263C22.217 11.063 22.1785 11.0054 22.13 10.957L18.9996 7.82652C18.9017 7.72862 18.7689 7.67362 18.6304 7.67362C18.492 7.67362 18.3592 7.72862 18.2613 7.82652C18.1634 7.92442 18.1084 8.0572 18.1084 8.19565C18.1084 8.3341 18.1634 8.46688 18.2613 8.56478L20.5009 10.8043H5.06522C4.6501 10.8043 4.25198 10.9693 3.95844 11.2628C3.66491 11.5563 3.5 11.9544 3.5 12.3696V25.9348C3.5 26.3499 3.66491 26.748 3.95844 27.0416C4.25198 27.3351 4.6501 27.5 5.06522 27.5H19.6739C20.089 27.5 20.4872 27.3351 20.7807 27.0416C21.0742 26.748 21.2391 26.3499 21.2391 25.9348V24.8913C21.2391 24.7529 21.1842 24.6202 21.0863 24.5224C20.9885 24.4245 20.8558 24.3696 20.7174 24.3696Z" fill="#1B2740"/>
</svg>
