<svg width="29" height="20" viewBox="0 0 29 20" fill="none" xmlns="http://www.w3.org/2000/svg">
<path d="M28.4805 7.35203L26.7852 3.11375C26.677 2.84485 26.4908 2.61447 26.2507 2.45219C26.0105 2.28992 25.7273 2.20318 25.4374 2.20312H20.7656V0.75C20.7656 0.621536 20.7146 0.498333 20.6238 0.407495C20.5329 0.316657 20.4097 0.265625 20.2812 0.265625H1.875C1.48961 0.265625 1.12 0.418721 0.847486 0.691235C0.574972 0.963749 0.421875 1.33336 0.421875 1.71875V15.2812C0.421875 15.6666 0.574972 16.0363 0.847486 16.3088C1.12 16.5813 1.48961 16.7344 1.875 16.7344H4.33199C4.44898 17.5409 4.85251 18.2782 5.46871 18.8115C6.08492 19.3448 6.87258 19.6383 7.6875 19.6383C8.50242 19.6383 9.29008 19.3448 9.90629 18.8115C10.5225 18.2782 10.926 17.5409 11.043 16.7344H17.8945C18.0115 17.5409 18.415 18.2782 19.0312 18.8115C19.6474 19.3448 20.4351 19.6383 21.25 19.6383C22.0649 19.6383 22.8526 19.3448 23.4688 18.8115C24.085 18.2782 24.4885 17.5409 24.6055 16.7344H27.0625C27.4479 16.7344 27.8175 16.5813 28.09 16.3088C28.3625 16.0363 28.5156 15.6666 28.5156 15.2812V7.53125C28.5154 7.46982 28.5035 7.409 28.4805 7.35203ZM20.7656 3.17188H25.4374C25.5343 3.17168 25.629 3.20054 25.7093 3.25472C25.7896 3.30891 25.8518 3.38592 25.8879 3.47582L27.3156 7.04688H20.7656V3.17188ZM1.39062 1.71875C1.39062 1.59029 1.44166 1.46708 1.5325 1.37624C1.62333 1.28541 1.74654 1.23438 1.875 1.23438H19.7969V9.95312H1.39062V1.71875ZM7.6875 18.6719C7.2085 18.6719 6.74025 18.5298 6.34198 18.2637C5.9437 17.9976 5.63329 17.6194 5.44998 17.1768C5.26667 16.7343 5.21871 16.2473 5.31216 15.7775C5.40561 15.3077 5.63627 14.8762 5.97498 14.5375C6.31368 14.1988 6.74522 13.9681 7.21502 13.8747C7.68481 13.7812 8.17177 13.8292 8.61431 14.0125C9.05685 14.1958 9.4351 14.5062 9.70122 14.9045C9.96733 15.3028 10.1094 15.771 10.1094 16.25C10.1094 16.8923 9.85421 17.5083 9.40002 17.9625C8.94583 18.4167 8.32982 18.6719 7.6875 18.6719ZM17.8945 15.7656H11.043C10.926 14.9591 10.5225 14.2218 9.90629 13.6885C9.29008 13.1552 8.50242 12.8617 7.6875 12.8617C6.87258 12.8617 6.08492 13.1552 5.46871 13.6885C4.85251 14.2218 4.44898 14.9591 4.33199 15.7656H1.875C1.74654 15.7656 1.62333 15.7146 1.5325 15.6238C1.44166 15.5329 1.39062 15.4097 1.39062 15.2812V10.9219H19.7969V13.1875C19.2922 13.4276 18.8545 13.7885 18.5226 14.2382C18.1908 14.6879 17.975 15.2126 17.8945 15.7656ZM21.25 18.6719C20.771 18.6719 20.3028 18.5298 19.9045 18.2637C19.5062 17.9976 19.1958 17.6194 19.0125 17.1768C18.8292 16.7343 18.7812 16.2473 18.8747 15.7775C18.9681 15.3077 19.1988 14.8762 19.5375 14.5375C19.8762 14.1988 20.3077 13.9681 20.7775 13.8747C21.2473 13.7812 21.7343 13.8292 22.1768 14.0125C22.6194 14.1958 22.9976 14.5062 23.2637 14.9045C23.5298 15.3028 23.6719 15.771 23.6719 16.25C23.6719 16.8923 23.4167 17.5083 22.9625 17.9625C22.5083 18.4167 21.8923 18.6719 21.25 18.6719ZM27.5469 15.2812C27.5469 15.4097 27.4958 15.5329 27.405 15.6238C27.3142 15.7146 27.191 15.7656 27.0625 15.7656H24.6055C24.477 14.8757 24.0002 14.0733 23.2801 13.5349C22.56 12.9965 21.6555 12.7661 20.7656 12.8945V8.01562H27.5469V15.2812Z" fill="#1B2740"/>
</svg>
